<svg width="256" height="203" viewBox="0 0 256 203" fill="none" xmlns="http://www.w3.org/2000/svg">
<g filter="url(#filter0_i_309_472)">
<path d="M67.0476 48.6907C66.7286 48.5586 66.5012 48.3286 66.3653 48.0005C66.2294 47.6725 66.2275 47.3491 66.3596 47.0301L74.6115 27.112L67.3909 24.1218C67.0719 23.9897 66.8445 23.7596 66.7086 23.4316C66.5727 23.1035 66.5708 22.7801 66.7029 22.4611L69.6037 15.4594C69.7358 15.1405 69.9659 14.9131 70.294 14.7772C70.622 14.6413 70.9455 14.6395 71.2645 14.7716L96.7533 25.3276C97.0726 25.4597 97.2999 25.6898 97.436 26.0178C97.572 26.3459 97.5735 26.6693 97.4418 26.9883L94.5405 33.99C94.4088 34.3089 94.1786 34.5363 93.8505 34.6722C93.5224 34.8081 93.1987 34.8099 92.8802 34.6778L85.6592 31.6876L77.4076 51.6056C77.276 51.9246 77.0457 52.1519 76.7176 52.2879C76.3895 52.4237 76.0658 52.4256 75.7466 52.2935L67.0476 48.6907ZM75.726 18.1478C75.4965 17.8827 75.3 17.6997 75.1382 17.5986C75.0176 17.4806 74.8131 17.481 74.5262 17.5999C74.251 17.6898 74.1275 17.8252 74.1539 18.0062C74.2098 18.1992 74.2422 18.4503 74.2496 18.7593C74.2819 19.0102 74.2819 19.2142 74.251 19.3712C74.2488 19.5401 74.3702 19.6582 74.6137 19.7253C74.9447 19.8284 75.1868 19.8605 75.3383 19.8215C75.5193 19.7946 75.6988 19.6482 75.8775 19.3822C76.0842 19.1283 76.1541 18.9194 76.0857 18.7554C76.018 18.5913 75.8981 18.3889 75.726 18.1478ZM72.9287 17.3969L72.6198 16.9123L72.0333 16.9751L72.0961 17.5616L72.5566 17.8032L72.9287 17.3969ZM90.6615 26.6259C90.6402 25.9379 90.5416 25.4384 90.3651 25.1273C90.1995 24.7873 89.8008 24.5203 89.1682 24.326C88.5348 24.1318 88.0655 24.1582 87.7595 24.405C87.4939 24.6349 87.1834 25.0158 86.8274 25.5475C86.4831 26.0504 86.2941 26.4648 86.261 26.7908C86.2404 27.0877 86.4162 27.4833 86.7892 27.9773C87.2077 28.5244 87.5586 28.9075 87.8418 29.1266C88.1538 29.3577 88.6459 29.3578 89.319 29.1271C89.9921 28.8964 90.3864 28.6011 90.5019 28.2411C90.6166 27.8812 90.6696 27.3428 90.6615 26.6259ZM81.7567 21.9191C81.2999 21.628 80.9166 21.4864 80.6076 21.4942C80.3281 21.5141 79.961 21.7019 79.5079 22.0578C79.0187 22.5006 78.6648 22.8634 78.4456 23.1463C78.2551 23.4412 78.2941 23.8817 78.5604 24.4677C78.82 25.1527 79.1003 25.6253 79.4005 25.8854C79.7124 26.1165 80.2383 26.1986 80.9799 26.1319C81.3999 26.102 81.6515 25.9857 81.7361 25.7827C81.8612 25.5628 81.9193 25.2984 81.9119 24.9894C81.9156 24.6514 81.9671 24.282 82.0649 23.881C82.1701 23.3811 82.2481 22.9886 82.2981 22.7037C82.3768 22.4308 82.1966 22.1692 81.7567 21.9191ZM75.8635 23.3509C75.7709 22.8368 75.7473 22.4024 75.7922 22.0475C75.8496 21.6635 75.6223 21.4335 75.1103 21.3573C74.4989 21.274 74.0752 21.3534 73.8391 21.5953C73.6441 21.8202 73.418 22.2021 73.1608 22.7409C72.9156 23.2508 72.7885 23.6397 72.7794 23.9077C72.7993 24.1877 73.0137 24.5312 73.4226 24.9383C73.8317 25.3454 74.1782 25.574 74.4636 25.6241C74.7483 25.6742 75.1492 25.5684 75.6649 25.3066C76.0989 25.0787 76.2571 24.8214 76.1379 24.5343C76.06 24.2303 75.9687 23.8359 75.8635 23.3509ZM70.6355 20.4722C70.5505 20.2673 70.4971 20.1092 70.4751 19.9982C70.4652 19.8582 70.3697 19.8017 70.1887 19.8287C69.9786 19.8436 69.8351 19.903 69.7581 20.007C69.6931 20.082 69.633 20.2269 69.5779 20.4419C69.5348 20.6278 69.5097 20.7704 69.5028 20.8693C69.5247 20.9803 69.6252 21.1068 69.8041 21.2489C69.9661 21.3499 70.0941 21.369 70.1881 21.306C70.2822 21.2431 70.4027 21.1571 70.5498 21.0482C70.6848 20.9682 70.7353 20.8872 70.7013 20.8052C70.7084 20.7063 70.6864 20.5952 70.6355 20.4722ZM92.9059 29.6954C92.7816 29.3383 92.5161 29.1603 92.1078 29.1611C91.8275 29.181 91.5972 29.2044 91.4163 29.2313C91.2471 29.2293 91.1169 29.3792 91.0264 29.6812C90.9227 30.0121 90.8646 30.2766 90.8506 30.4746C90.8653 30.6845 91.0345 30.8906 91.3589 31.0927C91.6414 31.3117 91.8481 31.3463 91.9783 31.1964C92.1203 31.0174 92.338 30.819 92.6323 30.6011C92.9383 30.3543 93.0295 30.0524 92.9059 29.6954ZM84.8316 27.1667C84.8361 26.8287 84.7831 26.5862 84.6742 26.4392C84.594 26.3042 84.3947 26.1707 84.0761 26.0386C83.7282 25.8944 83.4486 25.8298 83.239 25.8448C83.0411 25.8307 82.8322 25.9651 82.613 26.248C82.3702 26.5889 82.2209 26.8668 82.1657 27.0817C82.1517 27.2797 82.2621 27.5462 82.4975 27.8813C82.7027 28.2043 82.9109 28.3584 83.1213 28.3435C83.3427 28.2995 83.6267 28.2302 83.9717 28.1353C84.2755 28.0574 84.4866 27.958 84.6051 27.837C84.7228 27.7161 84.7985 27.4927 84.8316 27.1667ZM78.4456 26.713C78.1102 26.5398 77.8402 26.4113 77.6372 26.3272C77.4753 26.2261 77.262 26.2906 76.9964 26.5205C76.7198 26.7793 76.5889 27.0138 76.6036 27.2238C76.6595 27.4168 76.764 27.6977 76.917 28.0668C77.0817 28.4068 77.2208 28.6853 77.3348 28.9023C77.4606 29.0903 77.7195 29.1634 78.1102 29.1216C78.5015 29.0797 78.6957 28.9393 78.6928 28.7004C78.731 28.4444 78.7928 28.1304 78.8789 27.7585C78.9289 27.4735 78.9289 27.2696 78.8774 27.1465C78.8384 26.9946 78.695 26.8501 78.4456 26.713ZM76.9677 31.7564C76.7036 31.4094 76.3586 31.3002 75.9312 31.4291C75.7267 31.514 75.6142 31.6205 75.595 31.7485C75.6053 31.8884 75.6178 32.0634 75.6326 32.2734C75.6407 32.5824 75.623 32.8298 75.5796 33.0158C75.5369 33.2017 75.6517 33.3343 75.9246 33.4134C76.1975 33.4925 76.3785 33.4656 76.4675 33.3326C76.569 33.1706 76.708 32.9567 76.8868 32.6908C76.9994 32.4999 77.0656 32.3404 77.0847 32.2124C77.145 32.0674 77.106 31.9155 76.9677 31.7564ZM79.5233 34.445L79.2909 34.145L78.8274 34.1569L78.9002 34.5949L79.2997 34.8619L79.5233 34.445ZM75.8282 35.6152C75.9209 35.1442 75.7414 34.7982 75.2897 34.5771C75.0411 34.44 74.8403 34.3909 74.688 34.4298C74.5652 34.4808 74.3915 34.6127 74.1679 34.8256C73.9847 35.0215 73.8773 35.198 73.8464 35.3549C73.8273 35.4829 73.8832 35.6759 74.0142 35.9339C74.1282 36.151 74.2547 36.2545 74.3952 36.2445C74.5468 36.2056 74.7343 36.1642 74.9565 36.1203C75.2074 36.0884 75.403 36.0674 75.5428 36.0575C75.6951 36.0185 75.79 35.8711 75.8282 35.6152ZM78.9297 36.4922L78.5206 36.3735L78.3838 36.8265L78.6957 37.0575L79.0393 36.8432L78.9297 36.4922ZM80.6165 39.4324C80.5892 39.2515 80.5179 39.137 80.4017 39.089C80.3149 39.0529 80.1788 39.0134 79.9926 38.9703C79.6903 38.8792 79.4681 38.9231 79.3262 39.1021C79.2136 39.293 79.2511 39.5295 79.4402 39.8115C79.5778 39.9705 79.7698 39.9992 80.0162 39.8972C80.1802 39.8293 80.3178 39.7843 80.4289 39.7624C80.54 39.7404 80.6025 39.6304 80.6165 39.4324ZM77.298 39.0773C77.1502 38.7783 76.9891 38.5928 76.8154 38.5207C76.6823 38.4316 76.441 38.3996 76.0909 38.4244C75.8106 38.4444 75.6406 38.5268 75.5811 38.6718C75.5207 38.8167 75.445 39.0402 75.3537 39.3421C75.3037 39.6271 75.2574 39.8625 75.214 40.0485C75.1831 40.2055 75.3008 40.373 75.5663 40.5511C75.8738 40.7122 76.1034 40.7732 76.2549 40.7343C76.4359 40.7074 76.6448 40.5729 76.8809 40.3311C77.134 40.1302 77.2907 39.9572 77.3503 39.8123C77.4224 39.6383 77.4054 39.3933 77.298 39.0773ZM72.4636 42.6287C72.5308 42.3848 72.4748 42.1918 72.2958 42.0498C72.1919 41.9727 72.0989 41.9512 72.0169 41.9852C71.9348 42.0191 71.8408 42.082 71.7347 42.1741C71.6287 42.266 71.5346 42.329 71.4527 42.3629C71.3997 42.4089 71.3926 42.5079 71.4316 42.6599C71.4875 42.8528 71.67 42.9455 71.979 42.9375C72.218 42.9346 72.3796 42.8317 72.4636 42.6287ZM78.272 45.9515C78.3846 45.3526 78.2521 44.9751 77.8755 44.819C77.5275 44.6748 77.0751 44.4538 76.5197 44.1556C76.1254 43.9585 75.7944 43.8553 75.5266 43.8462C75.2993 43.8201 75.0146 43.9741 74.6726 44.3079C74.2246 44.7337 73.8619 45.076 73.5846 45.3349C73.3197 45.5647 73.3205 45.9727 73.5875 46.5588C73.9288 47.2099 74.2562 47.6509 74.5681 47.882C74.8918 48.0841 75.4244 48.1517 76.1652 48.085C76.8898 47.9773 77.3819 47.7735 77.6416 47.4736C77.9307 47.1858 78.1411 46.6784 78.272 45.9515ZM70.5778 43.1215C70.4978 42.9865 70.3409 42.9555 70.1069 43.0283C69.9258 43.0553 69.8428 43.1738 69.8577 43.3837C69.8556 43.5527 69.8306 43.6952 69.7825 43.8111C69.7345 43.9271 69.7974 44.0211 69.9714 44.0932C70.1454 44.1653 70.2794 44.1698 70.3734 44.1068C70.4675 44.0439 70.5855 43.9229 70.7276 43.744C70.8167 43.6111 70.8442 43.5036 70.8103 43.4215C70.7763 43.3395 70.6988 43.2396 70.5778 43.1215ZM31.7743 94.587C31.4553 94.4546 31.2279 94.2243 31.092 93.8963C30.9561 93.5683 30.9542 93.2454 31.0863 92.9262L42.7253 64.832C42.8574 64.5131 43.0875 64.2857 43.4156 64.1498C43.7436 64.014 44.0672 64.0121 44.3861 64.1442L53.2595 67.819C53.5784 67.9511 53.8059 68.1811 53.9418 68.5092C54.0777 68.8372 54.0796 69.1607 53.9474 69.4796L42.3085 97.5739C42.1764 97.8923 41.9463 98.1203 41.6182 98.2557C41.2902 98.3917 40.9666 98.3939 40.6477 98.2616L31.7743 94.587ZM48.3799 67.1738C48.1019 67.0247 47.8724 66.9637 47.6914 66.9906C47.5393 67.0296 47.3513 67.1555 47.1272 67.3683C46.9031 67.5813 46.7961 67.7577 46.806 67.8977C46.8449 68.0497 46.9444 68.2607 47.1043 68.5307C47.2522 68.8298 47.3541 69.0757 47.41 69.2687C47.507 69.4448 47.722 69.4998 48.055 69.434C48.4171 69.3801 48.6196 69.2602 48.6627 69.0743C48.7058 68.8883 48.7439 68.6323 48.777 68.3063C48.8391 67.9924 48.8507 67.7594 48.8118 67.6074C48.7728 67.4554 48.6288 67.3109 48.3799 67.1738ZM45.0648 66.5652L44.6554 66.4466L44.5622 66.9175L44.9537 67.0796L45.0648 66.5652ZM45.5739 69.2726L45.1495 68.944L44.8103 69.5168L45.2061 70.0374L45.7777 69.7646L45.5739 69.2726ZM48.0619 71.0163C48.052 70.8763 48.0446 70.7714 48.0396 70.7014C48.0466 70.6024 47.9776 70.5228 47.8326 70.4628C47.5597 70.3837 47.3341 70.4771 47.156 70.7431C47.0789 70.847 47.0574 70.94 47.0914 71.022C47.1664 71.087 47.2499 71.1725 47.3418 71.2786C47.4338 71.3846 47.4968 71.4786 47.5307 71.5606C47.6057 71.6256 47.7047 71.6327 47.8277 71.5817C47.9798 71.5428 48.0533 71.4883 48.0483 71.4183C48.0553 71.3193 48.0599 71.1853 48.0619 71.0163ZM43.6086 69.8343L43.4992 69.4834L43.0282 69.3902L43.1015 69.8282L43.3414 70.2332L43.6086 69.8343ZM50.5557 73.7302L50.0846 73.6375L50.017 74.17L50.4414 74.498L50.7956 74.1354L50.5557 73.7302ZM42.8668 71.8709L42.6779 71.5888L42.2324 71.5572L42.1647 72.0896L42.6866 72.3058L42.8668 71.8709ZM46.3267 74.2208C46.1958 73.9626 45.9638 73.867 45.6308 73.9324C45.4497 73.9597 45.2977 73.9986 45.1747 74.0494C45.0806 74.1126 45.0121 74.2369 44.9691 74.423C44.9409 74.8187 45.0803 75.0975 45.3873 75.2586C45.5902 75.3424 45.7327 75.3674 45.8147 75.3336C45.9087 75.2703 46.0413 75.1556 46.2124 74.9886C46.4365 74.7761 46.4746 74.5201 46.3267 74.2208ZM43.2863 73.3184L43.0644 72.8699L42.6848 73.1712L42.5407 73.5191L42.9756 73.6993L43.2863 73.3184ZM48.8608 77.2062L48.2667 77.1643L48.3041 77.6894L48.616 77.9204L49.0466 77.7424L48.8608 77.2062ZM40.9799 75.3181L40.6021 74.754L40.023 74.9224L40.0423 75.4902L40.5027 75.7322L40.9799 75.3181ZM46.8712 78.319C46.9503 78.0454 46.9294 77.8505 46.8084 77.7321C46.7165 77.6262 46.5521 77.4901 46.315 77.3239C46.1241 77.2113 45.9671 77.1797 45.8441 77.2312C45.7501 77.2937 45.6235 77.3945 45.4644 77.532C45.3054 77.6703 45.1873 77.7909 45.1103 77.8954C45.0742 77.9821 45.0842 78.1219 45.1402 78.3153C45.242 78.561 45.3245 78.7309 45.3875 78.825C45.4794 78.9309 45.6509 78.9685 45.902 78.9361C46.182 78.9162 46.3835 78.8809 46.5065 78.8302C46.6706 78.7618 46.7922 78.5919 46.8712 78.319ZM43.0672 77.6607C42.6803 77.3643 42.3468 77.226 42.0668 77.2459C41.8158 77.2783 41.4817 77.4283 41.0645 77.6975C40.7175 77.9608 40.5453 78.2124 40.5483 78.4514C40.5802 78.7022 40.6666 79.0266 40.8074 79.4252C40.9362 79.8518 41.0637 80.1592 41.1896 80.3475C41.3155 80.5358 41.5826 80.6292 41.9905 80.6285C42.5386 80.6175 42.9586 80.5873 43.2507 80.5388C43.5717 80.502 43.8198 80.2306 43.9951 79.726C44.1822 79.1921 44.1754 78.7986 43.9745 78.5455C43.8146 78.2756 43.5121 77.9807 43.0672 77.6607ZM46.5495 80.3255L46.227 80.2431L45.8654 80.5005L46.2283 80.855L46.7279 80.7557L46.5495 80.3255ZM39.056 81.8075C38.807 81.6707 38.6319 81.6832 38.5309 81.845C38.4419 81.9782 38.3058 82.1422 38.1227 82.3378C37.9396 82.5342 37.7745 82.6864 37.6275 82.7953C37.5214 82.8872 37.5254 83.0417 37.6393 83.2587C37.7532 83.4756 37.8862 83.5646 38.0382 83.5257C38.2023 83.458 38.4098 83.408 38.6609 83.3764C38.9119 83.344 39.1219 83.3293 39.2909 83.3315C39.4599 83.3337 39.5695 83.1917 39.6196 82.9071C39.6697 82.6225 39.6548 82.4121 39.5748 82.2775C39.5068 82.1135 39.3339 81.9568 39.056 81.8075ZM41.8261 83.3624L41.3551 83.269L41.3924 83.7941L41.8168 84.1229L42.1455 83.6985L41.8261 83.3624ZM44.9524 87.2554L44.738 86.9119L44.4634 87.2061L44.4752 87.6695L44.8878 87.5349L44.9524 87.2554ZM40.883 86.1308C40.7641 85.844 40.5297 85.7131 40.1796 85.7373C39.8296 85.7623 39.6175 85.9462 39.5434 86.289C39.4692 86.6324 39.5797 86.8987 39.8746 87.0892C40.0946 87.2142 40.2625 87.3003 40.3786 87.3488C40.5066 87.3672 40.6706 87.2996 40.8706 87.1444C41.0417 86.9774 41.1018 86.8325 41.0509 86.7097C41.0408 86.5699 40.9849 86.3765 40.883 86.1308ZM43.4712 88.9861C43.2023 88.569 42.8398 88.419 42.3837 88.5359C42.1208 88.5962 41.9446 88.6933 41.8556 88.8265C41.8076 88.9427 41.779 89.1346 41.7699 89.4024C41.7368 89.7282 41.7132 89.99 41.6991 90.1879C41.697 90.3571 41.841 90.5019 42.131 90.6218C42.45 90.7542 42.7 90.8064 42.881 90.7792C43.091 90.7645 43.3201 90.6218 43.5682 90.3512C43.7753 90.0967 43.8449 89.8878 43.777 89.7238C43.721 89.5311 43.6191 89.2847 43.4712 88.9861ZM37.4326 86.5868C37.2367 86.4037 37.0542 86.311 36.8852 86.3096C36.7572 86.2904 36.5787 86.3522 36.3496 86.4949C36.1495 86.6501 36.0544 86.7972 36.0644 86.9377C36.0864 87.0487 36.1338 87.2208 36.2067 87.4547C36.2966 87.7298 36.355 87.9578 36.3819 88.1388C36.4209 88.291 36.5804 88.3572 36.8605 88.3373C37.1864 88.3704 37.4025 88.341 37.5085 88.2491C37.6555 88.1402 37.7891 87.9402 37.9093 87.6504C38.0004 87.3488 38 87.1444 37.908 87.0384C37.828 86.9038 37.6696 86.7531 37.4326 86.5868ZM39.4715 90.0297L39.2211 89.7731L38.8595 90.0312L38.9763 90.4872L39.5014 90.4497L39.4715 90.0297ZM37.6503 90.2438L37.4104 89.8385L36.9109 89.9378L36.8252 90.5137L37.3141 90.563L37.6503 90.2438ZM35.4451 90.4004C35.5532 90.1393 35.6022 89.9393 35.5923 89.7988C35.5944 89.6304 35.4829 89.448 35.258 89.2531C35.0791 89.1111 34.9305 89.1001 34.8125 89.2214C34.7064 89.3134 34.5389 89.4311 34.3098 89.5737C34.0807 89.7164 33.9967 89.9194 34.0576 90.1827C34.1305 90.4166 34.1779 90.5887 34.1999 90.6998C34.2218 90.8109 34.3464 90.8793 34.5733 90.9057C34.8414 90.9146 35.0224 90.8874 35.1164 90.8248C35.2394 90.7741 35.349 90.6321 35.4451 90.4004ZM41.685 92.0678C41.523 91.9663 41.3505 92.0142 41.1674 92.2098C40.9963 92.3768 40.9447 92.5422 41.0127 92.7063C41.0806 92.8703 41.2401 92.9365 41.4911 92.9041C41.6311 92.8946 41.7362 92.8872 41.8061 92.882C41.9172 92.86 41.9822 92.785 42.0013 92.657C42.0393 92.401 41.9339 92.2047 41.685 92.0678ZM38.1761 92.2958L38.0593 91.8398L37.5162 91.9207L37.4485 92.4532L37.9015 92.5893L38.1761 92.2958ZM37.6593 94.5274C37.7143 94.3126 37.7309 94.1493 37.709 94.0383C37.728 93.9103 37.648 93.7757 37.4691 93.633C37.2491 93.508 37.0751 93.4359 36.9471 93.4175C36.8191 93.3984 36.6551 93.466 36.455 93.6212C36.255 93.7757 36.1949 93.9206 36.2748 94.0559C36.3668 94.1618 36.4553 94.3178 36.5402 94.5222C36.5792 94.6745 36.6156 94.7914 36.6496 94.8731C36.7125 94.9672 36.8285 95.0158 36.9975 95.0172C37.3476 94.993 37.5681 94.8289 37.6593 94.5274ZM41.4646 95.7976C41.4617 95.5586 41.3817 95.4232 41.2247 95.3923C41.0677 95.3614 40.8672 95.3122 40.6232 95.2452C40.4082 95.1901 40.2367 95.1533 40.1087 95.1342C40.0097 95.1268 39.8892 95.2129 39.7471 95.3923C39.61 95.6409 39.5115 95.838 39.4514 95.9829C39.3913 96.1278 39.4533 96.3066 39.6372 96.5184C39.7921 96.7185 39.9371 96.7788 40.0722 96.6986C40.2192 96.5897 40.4158 96.4838 40.6618 96.3823C40.9078 96.2801 41.1009 96.2242 41.2409 96.2146C41.3929 96.1756 41.4675 96.0366 41.4646 95.7976ZM18.4499 149.573C18.1309 149.44 17.9035 149.21 17.7676 148.882C17.6317 148.555 17.6299 148.231 17.762 147.912L29.4009 119.818C29.533 119.499 29.7631 119.271 30.0912 119.136C30.4193 119 30.7428 118.998 31.0618 119.13L39.3696 122.571C39.6886 122.703 39.916 122.933 40.0519 123.261C40.1878 123.589 40.1897 123.912 40.0576 124.232L36.4902 132.842L45.0628 126.05C45.3038 125.878 45.5969 125.745 45.942 125.65C46.3161 125.567 46.7351 125.621 47.199 125.813L56.8118 129.794C57.0728 129.902 57.2482 130.094 57.3381 130.369C57.4691 130.627 57.4805 130.886 57.3723 131.148C57.3003 131.321 57.1907 131.463 57.0436 131.572L43.7731 141.463L46.3604 159.45C46.3993 159.602 46.3768 159.779 46.2927 159.982C46.1846 160.243 45.987 160.433 45.7 160.552C45.4539 160.654 45.2003 160.651 44.9394 160.543L35.0221 156.436C34.4422 156.196 34.0612 155.885 33.8794 155.504C33.7385 155.106 33.6631 154.837 33.6532 154.697L32.2742 143.019L28.4187 152.326C28.2865 152.644 28.0564 152.871 27.7283 153.008C27.4002 153.144 27.0768 153.145 26.7577 153.013L18.4499 149.573ZM54.7067 131.062C54.6508 130.87 54.6118 130.717 54.5898 130.606C54.5679 130.495 54.4519 130.447 54.2418 130.462C53.8918 130.487 53.6737 130.686 53.5876 131.058C53.5445 131.243 53.5545 131.384 53.6174 131.478C53.7215 131.554 53.8544 131.643 54.0164 131.745C54.1494 131.834 54.2484 131.84 54.3134 131.765C54.3784 131.691 54.4639 131.607 54.57 131.515C54.741 131.348 54.7867 131.198 54.7067 131.062ZM50.513 129.376C50.411 129.131 50.2056 129.012 49.8965 129.02C49.5876 129.027 49.3934 129.168 49.3144 129.44C49.2833 129.598 49.2907 129.702 49.3368 129.756C49.4237 129.792 49.5337 129.855 49.6667 129.944C49.7997 130.033 49.8952 130.089 49.9532 130.113C50.0401 130.149 50.1367 130.121 50.2427 130.029C50.4958 129.828 50.5859 129.61 50.513 129.376ZM47.2594 128.742C47.0055 128.536 46.7965 128.466 46.6325 128.534C46.4685 128.602 46.2599 128.736 46.0068 128.937C45.7538 129.138 45.5826 129.305 45.4936 129.437C45.4335 129.583 45.463 129.799 45.5818 130.085C45.6718 130.361 45.7867 130.493 45.9268 130.483C46.0957 130.486 46.3288 130.497 46.6258 130.518C46.8358 130.503 46.9734 130.458 47.0384 130.383C47.1154 130.28 47.1754 130.134 47.2185 129.949C47.3097 129.646 47.4058 129.415 47.5068 129.253C47.6078 129.09 47.5254 128.92 47.2594 128.742ZM52.6693 131.798C52.4953 131.726 52.3588 131.687 52.2598 131.679C52.1607 131.673 52.0463 131.744 51.9161 131.894C51.7981 132.015 51.7706 132.122 51.8335 132.216C51.8965 132.31 51.968 132.425 52.048 132.56C52.1739 132.748 52.3334 132.814 52.5264 132.758C52.7075 132.731 52.8475 132.721 52.9465 132.728C53.0865 132.718 53.1575 132.629 53.1596 132.46C53.2147 132.245 53.1902 132.099 53.0862 132.022C53.0112 131.957 52.8722 131.882 52.6693 131.798ZM35.405 126.482C35.206 126.061 35.0112 125.793 34.8202 125.68C34.6412 125.538 34.3212 125.49 33.8601 125.537C33.3581 125.601 32.9635 125.692 32.6765 125.811C32.4304 125.913 32.2548 126.214 32.1496 126.714C32.0444 127.214 32.0898 127.555 32.2857 127.738C32.5227 127.904 32.8611 128.112 33.3011 128.362C33.828 128.649 34.2415 128.922 34.5414 129.182C34.8533 129.413 35.2334 129.315 35.6815 128.89C36.1298 128.464 36.2509 128.089 36.045 127.766C35.8681 127.455 35.6548 127.027 35.405 126.482ZM49.0953 133.783C49.1384 133.597 49.1079 133.465 49.0039 133.388C48.9 133.311 48.7465 133.23 48.5435 133.147C48.3405 133.063 48.1895 133.017 48.0905 133.01C47.9915 133.003 47.8769 133.075 47.7469 133.224C47.6289 133.345 47.5808 133.461 47.6028 133.573C47.6657 133.666 47.7312 133.795 47.7991 133.959C47.959 134.229 48.15 134.343 48.3721 134.298C48.5941 134.254 48.7606 134.221 48.8717 134.2C48.9947 134.148 49.0692 134.009 49.0953 133.783ZM45.0439 132.614C44.831 132.391 44.622 132.321 44.417 132.405C44.2119 132.491 44.1134 132.688 44.1212 132.997C44.1482 133.178 44.1521 133.332 44.1331 133.46C44.155 133.571 44.2735 133.654 44.4885 133.709C44.6745 133.752 44.8 133.736 44.865 133.662C44.971 133.57 45.0746 133.442 45.1757 133.281C45.2888 133.089 45.2448 132.867 45.0439 132.614ZM30.1799 126.917C30.201 126.62 30.0581 126.391 29.7511 126.23C29.4731 126.081 29.2161 126.127 28.98 126.369C28.7439 126.611 28.6913 126.861 28.8222 127.119C28.9702 127.418 29.2106 127.535 29.5437 127.469C29.9057 127.415 30.1177 127.231 30.1799 126.917ZM31.1525 129.613C30.9876 129.273 30.8422 129.009 30.7163 128.82C30.6313 128.615 30.4078 128.54 30.0458 128.594C29.6427 128.664 29.3847 128.795 29.2716 128.987C29.1585 129.177 29.0734 129.465 29.0163 129.849C28.9301 130.221 28.9355 130.494 29.0325 130.671C29.1294 130.847 29.3458 131.021 29.6818 131.195C29.9888 131.356 30.2328 131.423 30.4138 131.395C30.6069 131.34 30.8419 131.182 31.119 130.923C31.3431 130.711 31.4417 130.514 31.4147 130.333C31.3878 130.152 31.3004 129.912 31.1525 129.613ZM40.2209 133.063L39.6779 133.144L39.5592 133.553L39.8786 133.889L40.4142 133.703L40.2209 133.063ZM41.498 135.884C41.5771 135.611 41.6322 135.397 41.6633 135.239C41.6943 135.083 41.5913 134.921 41.3544 134.754C41.1174 134.589 40.917 134.54 40.7529 134.607C40.6299 134.659 40.4623 134.776 40.2503 134.96C40.0622 135.085 39.9732 135.219 39.9831 135.359C40.005 135.469 40.044 135.622 40.0999 135.815C40.2068 136.131 40.4148 136.285 40.7238 136.277C40.9628 136.274 41.1378 136.262 41.2488 136.239C41.3719 136.189 41.4549 136.07 41.498 135.884ZM36.0815 134.813C35.8735 134.659 35.696 134.636 35.549 134.745C35.4309 134.866 35.2574 134.998 35.0283 135.141C34.7872 135.313 34.5846 135.433 34.4206 135.501C34.2856 135.58 34.2485 135.752 34.3094 136.015C34.3993 136.29 34.5288 136.428 34.6978 136.431C34.8668 136.433 35.0998 136.445 35.3969 136.465C35.6359 136.462 35.8109 136.45 35.9219 136.428C36.0449 136.377 36.1545 136.236 36.2506 136.004C36.3417 135.702 36.3883 135.466 36.3903 135.297C36.4214 135.141 36.3185 134.979 36.0815 134.813ZM38.994 136.885C39.1211 136.496 39.0432 136.192 38.7602 135.973C38.5813 135.831 38.4158 135.78 38.2638 135.819C38.1528 135.841 38.0032 135.914 37.8152 136.04C37.6681 136.149 37.5911 136.253 37.584 136.352C37.577 136.451 37.6015 136.597 37.6574 136.79C37.7013 137.012 37.7487 137.185 37.7997 137.307C37.8627 137.402 37.9932 137.456 38.1912 137.47C38.5992 137.469 38.8668 137.274 38.994 136.885ZM43.8054 139.54L43.33 139.089L42.9398 139.538L42.7925 140.14L43.5351 140.193L43.8054 139.54ZM31.4126 136.242C31.2718 135.844 31.1119 135.574 30.9329 135.432C30.795 135.273 30.522 135.194 30.1139 135.195C29.6359 135.2 29.2568 135.213 28.9768 135.233C28.6968 135.253 28.4752 135.501 28.312 135.977C28.0767 136.627 27.8955 137.146 27.7684 137.535C27.6823 137.907 27.9076 138.306 28.4445 138.732C29.0394 139.182 29.5239 139.366 29.8979 139.283C30.284 139.171 30.7797 138.918 31.3848 138.523C31.867 138.18 32.0196 137.852 31.8427 137.541C31.7068 137.213 31.5635 136.78 31.4126 136.242ZM40.6445 139.913C40.4846 139.643 40.3261 139.492 40.1691 139.461C40.0121 139.43 39.7816 139.454 39.4776 139.531C38.9925 139.636 38.7383 139.921 38.7151 140.387C38.682 140.714 38.6729 140.981 38.6879 141.191C38.7149 141.373 38.8878 141.528 39.2068 141.661C39.4968 141.781 39.7007 141.781 39.8188 141.659C39.9489 141.509 40.1174 141.308 40.3246 141.054C40.5197 140.829 40.6617 140.65 40.7508 140.517C40.8398 140.384 40.8044 140.183 40.6445 139.913ZM41.0467 143.493C40.9109 143.165 40.7679 142.936 40.6179 142.806C40.497 142.688 40.2675 142.627 39.9295 142.622C39.6084 142.66 39.4264 142.771 39.3833 142.957C39.3522 143.114 39.2911 143.343 39.2001 143.645C39.145 143.86 39.1489 144.015 39.2118 144.109C39.3159 144.186 39.4428 144.289 39.5928 144.419C39.8588 144.597 40.0462 144.76 40.1551 144.907C40.3051 145.037 40.5007 145.016 40.7417 144.844C41.0068 144.614 41.1404 144.415 41.1424 144.245C41.1855 144.06 41.1536 143.809 41.0467 143.493ZM37.5788 142.516C37.462 142.06 37.249 141.835 36.94 141.843C36.66 141.863 36.293 141.847 35.839 141.795C35.4139 141.754 35.0589 141.709 34.7739 141.659C34.5179 141.621 34.3058 141.805 34.1377 142.211C33.9455 142.675 33.8859 143.024 33.9588 143.258C34.0607 143.504 34.2991 143.789 34.674 144.115C34.9739 144.375 35.2324 144.448 35.4495 144.334C35.6666 144.22 35.9367 144.06 36.2598 143.854C36.6649 143.614 37.005 143.45 37.28 143.359C37.567 143.241 37.6666 142.959 37.5788 142.516ZM29.2748 140.911L28.8622 141.045L28.7616 141.411L29.0915 141.598L29.4966 141.359L29.2748 140.911ZM42.1871 146.768C42.0732 146.551 41.9402 146.462 41.7882 146.501C41.6362 146.54 41.4346 146.575 41.1836 146.606C40.9326 146.639 40.7456 146.68 40.6226 146.731C40.5115 146.753 40.4284 146.871 40.3734 147.086C40.3403 147.413 40.3167 147.674 40.3026 147.872C40.3005 148.041 40.4385 148.2 40.7164 148.35C40.9944 148.498 41.2154 148.539 41.3795 148.471C41.5555 148.374 41.7556 148.219 41.9797 148.006C42.2037 147.794 42.3314 147.608 42.3624 147.452C42.3935 147.294 42.335 147.066 42.1871 146.768ZM26.5968 141.84C26.2679 141.567 25.9814 141.398 25.7374 141.331C25.5224 141.275 25.2268 141.374 24.8508 141.626C24.5276 141.832 24.388 142.046 24.432 142.268C24.4759 142.49 24.5333 142.802 24.6042 143.205C24.7111 143.521 24.819 143.753 24.9279 143.9C25.0369 144.047 25.2543 144.137 25.5804 144.17C26.0754 144.205 26.4799 144.254 26.7939 144.315C27.1079 144.378 27.361 144.177 27.5532 143.713C27.7574 143.22 27.747 142.876 27.5221 142.681C27.2971 142.486 26.9887 142.205 26.5968 141.84ZM42.7783 150.63C42.6283 150.499 42.4798 150.489 42.3328 150.598C42.1977 150.678 42.0687 150.744 41.9457 150.794C41.8347 150.816 41.7986 150.903 41.8375 151.056C41.9055 151.22 41.983 151.32 42.07 151.356C42.157 151.392 42.279 151.425 42.436 151.456C42.605 151.458 42.739 151.463 42.838 151.47C42.949 151.448 43.0405 151.35 43.1126 151.176C43.1727 151.031 43.1592 150.94 43.0722 150.904C42.9973 150.839 42.8993 150.748 42.7783 150.63ZM38.4914 149.415C38.3265 149.075 38.0631 148.931 37.701 148.986C37.298 149.056 37.0739 149.27 37.0287 149.624C36.9786 149.91 36.9585 150.121 36.9685 150.262C37.0075 150.413 37.1369 150.552 37.3569 150.677C37.6058 150.814 37.7749 150.816 37.8639 150.683C37.9819 150.563 38.1325 150.404 38.3156 150.208C38.4457 150.058 38.5287 149.94 38.5648 149.853C38.6128 149.737 38.5884 149.591 38.4914 149.415ZM27.1993 147.643C27.2154 147.276 27.169 147.018 27.06 146.871C26.9511 146.724 26.7226 146.579 26.3746 146.435C26.1136 146.327 25.9096 146.327 25.7626 146.436C25.6275 146.516 25.4565 146.683 25.2493 146.937C24.9772 147.265 24.9526 147.612 25.1755 147.976C25.3984 148.34 25.7113 148.487 26.1144 148.416C26.4185 148.338 26.667 148.271 26.86 148.215C27.053 148.159 27.1661 147.969 27.1993 147.643ZM39.6468 152.899L39.0452 152.752L39.0421 153.005L39.3031 153.113L39.6468 152.899ZM22.0815 145.727C21.9196 145.626 21.7806 145.551 21.6646 145.503C21.5896 145.438 21.4786 145.46 21.3316 145.569C21.1435 145.695 21.04 145.822 21.0209 145.95C21.0139 146.049 21.0383 146.195 21.0943 146.388C21.1622 146.552 21.2397 146.652 21.3266 146.688C21.4257 146.695 21.5597 146.7 21.7287 146.701C21.8977 146.704 22.0317 146.708 22.1307 146.715C22.2417 146.693 22.3333 146.595 22.4053 146.421C22.4774 146.248 22.4759 146.128 22.401 146.063C22.338 145.969 22.2315 145.857 22.0815 145.727ZM43.5043 154.904C43.4434 154.642 43.3549 154.486 43.239 154.438C43.123 154.39 42.9455 154.368 42.7065 154.37C42.4384 154.362 42.2344 154.362 42.0944 154.372C41.9544 154.381 41.8364 154.503 41.7402 154.735C41.6322 154.996 41.6241 155.179 41.716 155.285C41.849 155.374 42.0195 155.496 42.2274 155.649C42.4524 155.844 42.6133 156.03 42.7103 156.206C42.8482 156.365 43.0582 156.35 43.3404 156.161C43.6104 156.002 43.7175 155.825 43.6615 155.632C43.6346 155.451 43.5822 155.209 43.5043 154.904ZM28.0326 149.567L27.8797 149.198L27.5181 149.456L27.5225 149.815L27.863 149.854L28.0326 149.567ZM70.0043 171.433C67.1625 170.256 64.8489 168.789 63.0634 167.03C61.3069 165.283 60.1655 163.283 59.6392 161.026C59.154 158.753 59.388 156.303 60.341 153.674C61.2869 151.145 62.3439 148.594 63.5119 146.02C64.685 143.517 66.2467 141.633 68.1973 140.369C70.1479 139.105 72.3883 138.453 74.9183 138.414C77.4488 138.375 80.1346 138.944 82.9764 140.121C85.8181 141.298 88.1199 142.794 89.881 144.611C91.6429 146.427 92.7662 148.472 93.2517 150.745C93.7659 153.03 93.5378 155.466 92.5675 158.053C91.5737 160.699 90.5166 163.25 89.397 165.708C88.2119 168.24 86.6295 170.132 84.6499 171.384C82.7115 172.619 80.4892 173.227 77.9829 173.209C75.5053 173.202 72.8461 172.61 70.0043 171.433ZM83.9621 143.892C83.4612 143.378 83.0786 142.949 82.8153 142.602C82.5512 142.254 82.1142 142.243 81.5036 142.568C80.8651 142.88 80.5951 143.244 80.6952 143.659C80.8239 144.087 80.9335 144.642 81.0247 145.324C81.1226 145.908 81.2307 146.344 81.3492 146.631C81.4801 146.889 81.831 147.068 82.4011 147.168C82.9712 147.268 83.339 147.2 83.5053 146.963C83.712 146.709 83.9526 146.334 84.227 145.836C84.4484 145.384 84.5425 145.032 84.5109 144.782C84.4793 144.53 84.2961 144.234 83.9621 143.892ZM89.0299 146.296C88.8291 146.043 88.6121 145.953 88.3774 146.026C88.1846 146.082 88.0265 146.136 87.9036 146.186C87.8095 146.25 87.7558 146.38 87.7418 146.578C87.7447 146.817 87.783 146.969 87.858 147.034C87.9743 147.082 88.1339 147.148 88.3369 147.232C88.4818 147.292 88.587 147.285 88.6518 147.21C88.7165 147.135 88.8085 147.037 88.9262 146.915C89.0924 146.679 89.127 146.473 89.0299 146.296ZM77.0398 143.012C77.1494 142.582 77.0803 142.299 76.8316 142.161C76.5823 142.024 76.2667 141.843 75.8849 141.617C75.5031 141.39 75.1875 141.209 74.9389 141.072C74.7189 140.947 74.4438 141.036 74.1135 141.342C73.7545 141.634 73.6258 141.904 73.7273 142.15C73.8707 142.379 74.0414 142.705 74.24 143.126C74.393 143.495 74.5387 143.759 74.6762 143.918C74.8145 144.078 75.0786 144.136 75.47 144.094C75.9312 144.048 76.2843 143.973 76.5308 143.871C76.7765 143.769 76.9464 143.483 77.0398 143.012ZM87.7992 148.283L87.4365 147.929L87.1003 148.248L87.0863 148.65L87.5579 148.744L87.7992 148.283ZM90.1392 150.016C89.9141 149.821 89.7412 149.665 89.6199 149.547C89.5279 149.44 89.3528 149.453 89.0954 149.584C88.8372 149.715 88.6922 149.859 88.6613 150.016C88.6422 150.143 88.6569 150.354 88.7062 150.646C88.7092 150.885 88.7621 151.043 88.8666 151.12C89.0115 151.18 89.1917 151.237 89.4065 151.292C89.6331 151.319 89.7795 151.294 89.8442 151.219C89.9097 151.145 89.9987 151.011 90.1113 150.82C90.2128 150.658 90.2665 150.528 90.2738 150.429C90.293 150.301 90.2481 150.163 90.1392 150.016ZM71.9735 143.308C71.7125 143.2 71.518 143.137 71.39 143.118C71.262 143.099 71.1065 143.187 70.9234 143.383C70.7403 143.579 70.6538 143.747 70.6637 143.887C70.7147 144.01 70.8116 144.186 70.9545 144.415C71.1025 144.714 71.2043 144.96 71.2603 145.153C71.3573 145.329 71.5722 145.384 71.9053 145.319C72.2383 145.252 72.4264 145.127 72.4695 144.941C72.5125 144.754 72.5567 144.484 72.6018 144.129C72.6399 143.873 72.5924 143.7 72.4595 143.611C72.3675 143.506 72.2055 143.405 71.9735 143.308ZM86.2669 149.89L85.8395 149.815L85.721 150.224L86.0153 150.499L86.4022 150.303L86.2669 149.89ZM73.5176 162.952C74.4747 163.349 75.3567 163.391 76.1652 163.081C76.9854 162.741 77.6622 161.969 78.1955 160.763C79.3159 158.305 80.3244 155.87 81.2226 153.457C81.6978 152.227 81.7457 151.211 81.3646 150.408C81.0247 149.587 80.3914 148.986 79.463 148.601C78.5354 148.217 77.6614 148.194 76.8412 148.534C76.0327 148.845 75.3479 149.597 74.7851 150.791C73.7133 153.132 72.7042 155.568 71.7582 158.097C71.3117 159.339 71.2438 160.363 71.5546 161.172C71.9063 161.962 72.5606 162.557 73.5176 162.952ZM86.5133 153.355C86.2139 153.095 85.9469 153.002 85.7122 153.074C85.5195 153.13 85.2473 153.255 84.8949 153.449C84.5425 153.643 84.2873 153.809 84.1284 153.947C83.9687 154.085 83.9246 154.355 83.996 154.758C84.0666 155.161 84.1916 155.434 84.3704 155.576C84.5617 155.688 84.8633 155.78 85.2767 155.849C85.7306 155.901 86.0771 155.926 86.3161 155.923C86.5964 155.903 86.8406 155.682 87.0496 155.259C87.271 154.807 87.3247 154.473 87.2107 154.256C87.1084 154.009 86.8767 153.709 86.5133 153.355ZM88.5937 154.115L88.1736 154.145L88.0552 154.554L88.3928 154.847L88.6415 154.491L88.5937 154.115ZM71.9732 148.353C71.7823 148.239 71.6408 148.13 71.5488 148.024C71.4688 147.889 71.3348 147.884 71.1467 148.011C70.9587 148.136 70.8696 148.269 70.8796 148.409C70.9016 148.52 70.949 148.692 71.0219 148.926C71.1069 149.131 71.1748 149.295 71.2258 149.418C71.2887 149.512 71.4192 149.567 71.6173 149.581C71.8563 149.578 71.9853 149.512 72.0043 149.384C72.0524 149.268 72.1184 149.109 72.2025 148.906C72.2746 148.732 72.1982 148.547 71.9732 148.353ZM68.7016 147.762C68.7278 147.535 68.6248 147.374 68.3928 147.277C68.2478 147.217 68.1259 147.184 68.0269 147.176C67.9398 147.14 67.8518 147.189 67.7628 147.322C67.5677 147.547 67.5356 147.788 67.6665 148.047C67.8215 148.247 68.0449 148.322 68.337 148.273C68.571 148.2 68.6926 148.03 68.7016 147.762ZM71.4409 151.851C71.469 151.456 71.3877 151.201 71.1967 151.088C71.0347 150.987 70.7652 150.858 70.3882 150.702C70.1273 150.594 69.9293 150.58 69.7942 150.66C69.6882 150.752 69.5376 150.911 69.3425 151.135C69.1474 151.36 68.9849 151.548 68.8548 151.698C68.7657 151.831 68.8012 152.032 68.9611 152.302C69.121 152.572 69.2854 152.708 69.4545 152.71C69.6235 152.712 69.86 152.674 70.1641 152.596C70.5261 152.543 70.8181 152.493 71.0401 152.45C71.2622 152.406 71.3958 152.207 71.4409 151.851ZM83.6877 156.363C83.3707 156.062 83.0507 156.014 82.7277 156.22C82.3754 156.414 82.2349 156.712 82.3055 157.115C82.3496 157.337 82.4298 157.472 82.546 157.521C82.6615 157.568 82.8329 157.605 83.0602 157.632C83.2464 157.674 83.3714 157.659 83.4369 157.584C83.5141 157.479 83.5884 157.34 83.6605 157.167C83.7326 156.993 83.7922 156.848 83.8407 156.732C83.8886 156.616 83.8378 156.493 83.6877 156.363ZM88.4436 158.536C88.2361 158.383 88.064 158.345 87.9294 158.425C87.8352 158.489 87.6881 158.597 87.488 158.752C87.2467 158.924 87.1651 159.162 87.243 159.466C87.3453 159.712 87.41 159.926 87.4365 160.107C87.4755 160.258 87.6204 160.318 87.8713 160.287C88.1685 160.307 88.37 160.272 88.476 160.18C88.5944 160.06 88.693 159.862 88.7717 159.59C88.9232 159.142 88.8136 158.792 88.4436 158.536ZM86.2794 161.054C86.0888 160.941 85.938 160.895 85.8269 160.917C85.7446 160.951 85.6386 161.043 85.5084 161.193C85.3613 161.302 85.2495 161.409 85.1722 161.512C85.1362 161.6 85.1524 161.725 85.22 161.889C85.276 162.082 85.3539 162.182 85.4525 162.189C85.593 162.179 85.7475 162.175 85.916 162.177C86.2374 162.14 86.425 162.015 86.4802 161.799C86.5236 161.614 86.5339 161.465 86.5118 161.354C86.5192 161.255 86.4419 161.155 86.2794 161.054ZM82.2356 159.99C81.9016 159.648 81.5382 159.583 81.1454 159.793C80.7231 159.993 80.5561 160.314 80.6437 160.758C80.6635 161.038 80.7261 161.217 80.8298 161.293C80.9629 161.383 81.1513 161.461 81.3955 161.528C81.6515 161.566 81.8325 161.539 81.9384 161.447C82.0443 161.355 82.1598 161.199 82.2849 160.979C82.4099 160.759 82.4673 160.579 82.4578 160.439C82.4769 160.311 82.4026 160.162 82.2356 159.99ZM65.3361 154.164C65.2703 153.831 65.1323 153.672 64.9223 153.686C64.7122 153.701 64.4298 153.686 64.0747 153.641C63.7777 153.62 63.5447 153.608 63.3757 153.606C63.2067 153.604 63.0621 153.748 62.942 154.038C62.7979 154.386 62.7128 154.673 62.6867 154.901C62.6726 155.099 62.8156 155.327 63.1155 155.588C63.4274 155.819 63.6739 155.921 63.8549 155.894C64.077 155.85 64.3495 155.725 64.6726 155.519C64.9957 155.313 65.2078 155.13 65.3088 154.968C65.4389 154.818 65.448 154.549 65.3361 154.164ZM86.7046 164.949C86.3581 164.636 86.0601 164.495 85.8086 164.527C85.5577 164.559 85.2296 164.695 84.825 164.935C84.4197 165.175 84.1401 165.399 83.9857 165.607C83.8606 165.827 83.8569 166.164 83.9732 166.62C84.0614 167.065 84.227 167.32 84.4712 167.387C84.7154 167.454 85.0641 167.514 85.518 167.566C85.8564 167.57 86.0756 167.491 86.1771 167.329C86.2779 167.168 86.3949 166.927 86.5265 166.608C86.6825 166.231 86.8237 165.933 86.9488 165.713C87.1143 165.476 87.0334 165.221 86.7046 164.949ZM69.7599 158.492C69.798 158.236 69.7506 158.063 69.6176 157.974C69.5136 157.898 69.3456 157.811 69.1137 157.715C68.8067 157.554 68.5291 157.609 68.281 157.88C68.122 158.018 68.0184 158.144 67.9704 158.261C67.9513 158.389 67.9903 158.541 68.0872 158.717C68.2011 158.934 68.3076 159.045 68.4066 159.053C68.5466 159.042 68.7217 159.031 68.9317 159.015C69.1657 158.942 69.3528 158.901 69.4927 158.891C69.6448 158.852 69.7338 158.72 69.7599 158.492ZM80.139 163.453L79.8838 162.838L79.2585 163.241L79.4439 163.777L80.0096 164.011L80.139 163.453ZM65.524 157.4L65.2916 157.1L65.0784 157.368L65.0648 157.771L65.4849 157.741L65.524 157.4ZM67.443 160.641C67.3821 160.377 67.2091 160.221 66.9241 160.171C66.6971 160.145 66.5051 160.116 66.3481 160.085C66.1911 160.054 66.0706 160.141 65.9865 160.344C65.8904 160.575 65.8618 160.767 65.9007 160.919C65.9517 161.042 66.0751 161.195 66.2711 161.378C66.4211 161.509 66.5431 161.542 66.6371 161.479C66.7432 161.387 66.8987 161.298 67.1037 161.214C67.3738 161.053 67.4869 160.863 67.443 160.641ZM78.9348 166.114C79.0908 165.736 79.0275 165.438 78.7443 165.219C78.5949 165.089 78.4669 165.07 78.3603 165.162C78.2955 165.237 78.1749 165.323 77.9991 165.42C77.8233 165.517 77.6732 165.591 77.5503 165.642C77.4275 165.693 77.3731 165.823 77.3885 166.033C77.4731 166.238 77.5592 166.358 77.646 166.395C77.774 166.414 77.9579 166.422 78.197 166.419C78.3949 166.433 78.5493 166.429 78.6604 166.407C78.7715 166.385 78.8627 166.287 78.9348 166.114ZM81.8016 166.944C81.6412 166.674 81.483 166.523 81.3256 166.492C81.1689 166.461 80.9446 166.47 80.6525 166.519C80.3605 166.567 80.1699 166.659 80.0809 166.792C80.0037 166.895 79.9544 167.096 79.9338 167.393C79.8647 167.806 80.0265 168.111 80.4208 168.308C80.8143 168.505 81.1623 168.445 81.4632 168.128C81.6581 167.904 81.8008 167.724 81.8898 167.592C81.9906 167.429 81.9612 167.214 81.8016 166.944ZM62.1482 158.906C62.0633 158.701 61.8868 158.594 61.6188 158.585C61.4788 158.595 61.3533 158.611 61.2423 158.633C61.1722 158.638 61.1072 158.713 61.0472 158.858C60.9751 159.032 60.9355 159.168 60.9285 159.267C60.9504 159.379 61.0424 159.484 61.2044 159.585C61.3834 159.728 61.5309 159.823 61.6469 159.871C61.7628 159.918 61.9149 159.879 62.1029 159.754C62.291 159.628 62.3595 159.504 62.3086 159.381C62.2576 159.257 62.2042 159.1 62.1482 158.906ZM75.0514 165.524L74.916 165.111L74.4636 164.975L74.3702 165.446L74.6461 165.763L75.0514 165.524ZM69.0233 162.977L68.7262 162.955L68.6436 163.278L68.912 163.491L69.0233 162.977ZM70.9595 164.084C70.7225 163.918 70.4895 163.906 70.2605 164.049C70.0724 164.176 69.9108 164.278 69.7758 164.358C69.6697 164.45 69.6387 164.607 69.6826 164.829C69.7555 165.063 69.856 165.19 69.984 165.209C70.153 165.21 70.357 165.21 70.5961 165.207C70.8351 165.204 71.0186 165.213 71.1466 165.232C71.2866 165.221 71.4047 165.101 71.5007 164.868C71.5848 164.666 71.5604 164.52 71.4274 164.431C71.2944 164.342 71.1384 164.226 70.9595 164.084ZM72.8088 165.156L72.3228 164.852L72.1501 165.392L72.408 165.754L72.7516 165.54L72.8088 165.156ZM65.2671 162.695C64.9621 162.365 64.6997 162.137 64.4798 162.012C64.2888 161.899 63.9823 161.942 63.5602 162.14C63.1501 162.31 62.9115 162.518 62.8444 162.761C62.7893 162.977 62.7852 163.314 62.832 163.775C62.8618 164.195 62.9397 164.499 63.0657 164.687C63.2037 164.846 63.4731 164.975 63.8741 165.073C64.3161 165.154 64.6396 165.152 64.8447 165.067C65.0787 164.994 65.3088 164.767 65.535 164.385C65.7491 164.032 65.8197 163.739 65.7468 163.505C65.7029 163.283 65.543 163.013 65.2671 162.695ZM78.1984 169.12L77.6739 169.158L77.1892 169.466L77.7181 169.787L78.1999 169.732L78.1984 169.12ZM73.2656 167.128C72.7966 166.866 72.4162 166.759 72.1241 166.808C71.8321 166.857 71.474 167.065 71.0498 167.433C70.6546 167.813 70.4115 168.154 70.3204 168.456C70.2702 168.741 70.3821 169.127 70.656 169.614C70.8888 170.118 71.1298 170.438 71.3787 170.576C71.6567 170.724 72.0672 170.759 72.6102 170.678C73.1533 170.597 73.5164 170.459 73.6993 170.263C73.9237 170.05 74.0796 169.673 74.1679 169.132C74.2849 168.603 74.2783 168.21 74.1473 167.952C74.0576 167.677 73.7633 167.402 73.2656 167.128ZM66.6294 166.418C66.4383 166.305 66.2788 166.239 66.1508 166.219C66.0639 166.183 65.9469 166.22 65.7998 166.329C65.5177 166.518 65.4241 166.785 65.519 167.13C65.6139 167.475 65.8303 167.649 66.1684 167.654C66.5643 167.682 66.8139 167.53 66.9171 167.199C66.9892 167.026 66.9937 166.892 66.9307 166.798C66.8798 166.674 66.7793 166.548 66.6294 166.418Z" fill="#7D7FD3"/>
</g>
<path d="M72.2011 125.903H76.789V81.1948H67.613V89.787H62.3694V76.2434H97.2535V89.787H91.9371V81.1948H82.7608V125.903H87.4946V130.855H72.2011V125.903ZM134.112 130.781V127.471L129.404 130.855H108.954L102.039 125.118V101.435L108.954 95.7711H129.551L134.112 100.552V95.7711H136.981V130.781H134.112ZM134.112 104.965L128.227 98.6396H109.984L105.055 102.832V123.794L110.057 127.839H128.448L134.112 123.647V104.965ZM169.021 124.447C169.021 128.719 166.933 130.855 162.758 130.855H145.134V119.86H150.086V125.903H163.195V119.86L151.251 112.36C150.037 111.583 148.993 110.952 148.12 110.467C147.246 109.981 146.517 109.496 145.935 109.01C144.867 108.039 144.333 106.729 144.333 105.078V100.928C144.333 98.8889 144.672 97.4812 145.352 96.7045C146.663 95.1996 148.605 94.4472 151.178 94.4472H168.147V105.369H163.195V99.3986H150.086V105.515L162.467 113.234C163.486 113.865 164.384 114.423 165.161 114.908C165.987 115.345 166.666 115.806 167.2 116.292C168.414 117.311 169.021 118.525 169.021 119.933V124.447ZM208.163 125.903V130.855H201.899L186.096 112.505V125.903H190.465V130.855H175.609V125.903H180.27V81.1948H175.609V76.2434H185.805V110.758L202.409 94.4472H208.09V99.3986H204.084L192.213 111.559L204.376 125.903H208.163Z" fill="#7576C5"/>
<path d="M118.802 124.282C118.521 124.667 117.954 124.688 117.647 124.324L108.5 113.551C107.933 112.883 108.799 111.962 109.501 112.486L117.695 118.606C118.007 118.84 118.446 118.789 118.698 118.492L151.656 79.4348L150.154 81.3008L134.818 102.358L118.802 124.282Z" fill="#FF62A4"/>
<defs>
<filter id="filter0_i_309_472" x="17.6643" y="14.6739" width="79.8751" height="162.536" filterUnits="userSpaceOnUse" color-interpolation-filters="sRGB">
<feFlood flood-opacity="0" result="BackgroundImageFix"/>
<feBlend mode="normal" in="SourceGraphic" in2="BackgroundImageFix" result="shape"/>
<feColorMatrix in="SourceAlpha" type="matrix" values="0 0 0 0 0 0 0 0 0 0 0 0 0 0 0 0 0 0 127 0" result="hardAlpha"/>
<feOffset dy="4"/>
<feGaussianBlur stdDeviation="2"/>
<feComposite in2="hardAlpha" operator="arithmetic" k2="-1" k3="1"/>
<feColorMatrix type="matrix" values="0 0 0 0 0 0 0 0 0 0 0 0 0 0 0 0 0 0 0.25 0"/>
<feBlend mode="normal" in2="shape" result="effect1_innerShadow_309_472"/>
</filter>
</defs>
</svg>
